<?xml version="1.0" standalone="no"?>
<!DOCTYPE svg PUBLIC "-//W3C//DTD SVG 20010904//EN"
 "http://www.w3.org/TR/2001/REC-SVG-20010904/DTD/svg10.dtd">
<svg version="1.0" xmlns="http://www.w3.org/2000/svg"
 width="512.000000pt" height="512.000000pt" viewBox="0 0 512.000000 512.000000"
 preserveAspectRatio="xMidYMid meet">

<g transform="translate(0.000000,512.000000) scale(0.100000,-0.100000)"
fill="#000000" stroke="none">
<path d="M5030 4754 c-630 -134 -1223 -367 -1750 -686 -96 -58 -119 -69 -145
-64 -25 5 -55 -5 -146 -50 -675 -331 -1532 -1085 -2205 -1939 -227 -288 -382
-529 -469 -730 -161 -371 -242 -659 -290 -1028 -13 -106 -13 -121 0 -148 18
-34 58 -53 94 -44 14 4 79 49 144 102 146 117 178 164 236 340 52 157 129 349
187 465 l44 88 32 -8 c68 -15 389 -8 495 11 151 27 364 83 374 98 19 29 3 53
-56 88 -81 47 -154 123 -193 203 -35 72 -40 109 -17 128 17 14 30 12 148 -29
143 -50 247 -64 437 -58 201 6 307 30 385 85 352 252 1045 848 1045 898 0 30
-17 41 -80 49 -161 20 -333 85 -473 179 -80 53 -92 65 -95 93 -4 45 20 56 92
42 92 -17 322 -26 440 -17 228 16 362 69 526 207 123 103 282 257 299 288 10
19 8 26 -8 42 -17 17 -25 18 -63 9 -105 -23 -315 -49 -453 -55 l-150 -6 -30
25 c-40 35 -42 99 -4 132 23 20 42 24 155 29 245 13 490 56 726 128 l138 42
132 169 c215 273 330 451 462 716 65 129 109 224 103 221 -1 -1 -31 -7 -67
-15z"/>
</g>
</svg>
