<?xml version="1.0" standalone="no"?>
<!DOCTYPE svg PUBLIC "-//W3C//DTD SVG 20010904//EN"
 "http://www.w3.org/TR/2001/REC-SVG-20010904/DTD/svg10.dtd">
<svg version="1.0" xmlns="http://www.w3.org/2000/svg"
 width="512.000000pt" height="512.000000pt" viewBox="0 0 512.000000 512.000000"
 preserveAspectRatio="xMidYMid meet">

<g transform="translate(0.000000,512.000000) scale(0.100000,-0.100000)"
fill="#000000" stroke="none">
<path d="M2523 5110 c-47 -19 -48 -32 -48 -423 l0 -369 28 -24 c37 -31 81 -31
112 1 l25 24 0 374 c0 342 -2 377 -17 396 -21 24 -68 35 -100 21z"/>
<path d="M689 4351 c-18 -14 -24 -29 -24 -60 0 -35 7 -47 44 -85 l44 -45 -60
-68 c-381 -432 -603 -1025 -603 -1610 0 -118 1 -125 25 -148 24 -25 25 -25
228 -25 260 0 242 -14 251 195 17 386 104 687 284 985 46 76 159 231 207 284
l26 29 37 -35 c68 -65 112 -71 152 -21 33 42 26 77 -27 136 -87 97 -298 308
-395 398 -83 76 -103 89 -132 89 -18 0 -44 -9 -57 -19z"/>
<path d="M4068 4102 c-235 -235 -268 -271 -268 -298 0 -64 64 -108 118 -80 15
8 142 130 282 270 250 251 255 256 255 297 0 51 -30 79 -83 79 -34 0 -53 -16
-304 -268z"/>
<path d="M2400 3999 c-668 -76 -1200 -557 -1340 -1211 -22 -101 -37 -299 -26
-341 8 -32 58 -61 92 -53 49 13 61 39 68 152 17 259 94 487 239 704 65 98 261
291 362 358 149 99 322 172 495 209 119 25 420 26 537 0 279 -60 493 -176 694
-376 113 -113 189 -212 242 -317 l26 -50 -152 -23 c-436 -64 -1091 -210 -1226
-274 -63 -29 -127 -96 -159 -165 -22 -46 -26 -72 -27 -137 0 -71 4 -88 33
-147 36 -73 87 -124 161 -160 39 -20 61 -23 146 -22 98 1 104 2 340 83 292
101 557 204 813 318 106 47 195 83 198 80 3 -2 8 -46 11 -96 6 -97 20 -125 67
-137 34 -8 84 21 92 53 4 14 4 80 0 147 l-6 121 137 73 c286 150 358 191 375
212 27 34 23 77 -11 111 -36 36 -46 36 -341 9 -305 -28 -273 -33 -316 53 -280
556 -906 896 -1524 826z"/>
<path d="M3132 1869 c-24 -7 -37 -20 -48 -44 -28 -67 15 -115 103 -115 l53 0
0 -88 0 -89 -87 -21 c-278 -68 -486 -271 -565 -549 -16 -59 -22 -106 -22 -193
0 -165 38 -294 124 -423 217 -324 635 -436 978 -263 499 251 574 927 141 1277
-32 26 -81 60 -111 77 -54 31 -182 75 -250 87 l-38 6 0 89 0 90 60 0 c51 0 65
4 85 25 32 31 32 75 1 112 l-24 28 -184 2 c-100 1 -198 -3 -216 -8z m108 -548
c0 -81 30 -120 92 -121 52 0 78 35 78 106 0 38 4 54 13 54 54 0 257 -91 257
-114 0 -7 -16 -27 -35 -46 -42 -41 -48 -90 -13 -127 34 -36 86 -32 128 12 19
19 39 35 46 35 23 0 114 -203 114 -257 0 -9 -16 -13 -54 -13 -70 0 -106 -26
-106 -76 0 -20 4 -44 10 -54 12 -22 61 -40 111 -40 22 0 39 -4 39 -9 0 -29
-54 -173 -81 -214 l-30 -49 -46 42 c-40 38 -49 42 -82 36 -79 -12 -95 -89 -34
-157 36 -40 37 -42 18 -56 -52 -39 -187 -93 -232 -93 -21 0 -23 4 -23 55 0 46
-4 60 -25 80 -31 32 -75 32 -111 2 -22 -19 -28 -34 -32 -81 l-5 -58 -41 6
c-36 6 -175 67 -215 95 -12 8 -7 18 27 55 51 55 54 86 13 127 -41 41 -72 38
-127 -13 -43 -39 -45 -40 -59 -22 -22 30 -67 125 -82 173 -22 74 -20 78 44 83
46 4 61 10 80 32 30 36 30 80 -2 111 -20 21 -34 25 -80 25 -51 0 -55 2 -55 23
0 45 54 180 93 232 14 19 16 18 56 -18 51 -46 99 -50 136 -12 38 37 33 77 -16
130 l-40 44 43 28 c40 26 187 82 216 83 7 0 12 -14 12 -39z"/>
<path d="M3365 1006 c-11 -8 -44 -63 -73 -124 -52 -106 -53 -110 -39 -143 8
-19 39 -58 70 -86 70 -66 110 -72 152 -21 33 39 28 79 -14 122 l-29 28 35 74
c38 81 39 109 1 144 -25 23 -75 26 -103 6z"/>
</g>
</svg>
